<?xml version="1.0" encoding="UTF-8" standalone="no"?>
<!-- Created with Inkscape (http://www.inkscape.org/) -->

<svg
   xmlns:dc="http://purl.org/dc/elements/1.1/"
   xmlns:cc="http://creativecommons.org/ns#"
   xmlns:rdf="http://www.w3.org/1999/02/22-rdf-syntax-ns#"
   xmlns:svg="http://www.w3.org/2000/svg"
   xmlns="http://www.w3.org/2000/svg"
   xmlns:sodipodi="http://sodipodi.sourceforge.net/DTD/sodipodi-0.dtd"
   xmlns:inkscape="http://www.inkscape.org/namespaces/inkscape"
   width="210mm"
   height="297mm"
   viewBox="0 0 210 297"
   version="1.1"
   id="svg8"
   inkscape:version="0.92.4 (5da689c313, 2019-01-14)"
   sodipodi:docname="BasicPiano.svg">
  <defs
     id="defs2" />
  <sodipodi:namedview
     id="base"
     pagecolor="#ffffff"
     bordercolor="#666666"
     borderopacity="1.0"
     inkscape:pageopacity="0.0"
     inkscape:pageshadow="2"
     inkscape:zoom="2.0000001"
     inkscape:cx="333.08415"
     inkscape:cy="914.57799"
     inkscape:document-units="mm"
     inkscape:current-layer="g3740"
     showgrid="false"
     inkscape:window-width="1920"
     inkscape:window-height="1017"
     inkscape:window-x="-8"
     inkscape:window-y="-8"
     inkscape:window-maximized="1" />
  <metadata
     id="metadata5">
    <rdf:RDF>
      <cc:Work
         rdf:about="">
        <dc:format>image/svg+xml</dc:format>
        <dc:type
           rdf:resource="http://purl.org/dc/dcmitype/StillImage" />
        <dc:title />
      </cc:Work>
    </rdf:RDF>
  </metadata>
  <g
     inkscape:label="Layer 1"
     inkscape:groupmode="layer"
     id="layer1">
    <g
       transform="matrix(0.35277777,0,0,-0.35277777,-339.48,504.6493)"
       inkscape:label="ink_ext_XXXXXX"
       id="g3740">
      <path
         inkscape:connector-curvature="0"
         style="fill:#ffffff;fill-opacity:1;fill-rule:nonzero;stroke:#646464;stroke-width:0.50479937;stroke-opacity:1"
         d="m 1056.1455,1358.9853 h 22.5799 v -124.084 c 0,-1.5499 -1.258,-2.804 -2.8079,-2.804 h -16.9641 c -1.5518,0 -2.8079,1.2541 -2.8079,2.804 v 124.084"
         id="path4443" />
      <path
         inkscape:connector-curvature="0"
         style="fill:#ffffff;fill-opacity:1;fill-rule:nonzero;stroke:#646464;stroke-width:0.50479937;stroke-opacity:1"
         d="m 1081.5866,1358.9853 h 22.5799 v -124.084 c 0,-1.5499 -1.2561,-2.804 -2.8079,-2.804 h -16.964 c -1.55,0 -2.808,1.2541 -2.808,2.804 v 124.084"
         id="path4445" />
      <path
         inkscape:connector-curvature="0"
         style="fill:#ffffff;fill-opacity:1;fill-rule:nonzero;stroke:#646464;stroke-width:0.50479937;stroke-opacity:1"
         d="m 1107.0297,1358.9853 h 22.5799 v -124.084 c 0,-1.5499 -1.2581,-2.804 -2.8079,-2.804 h -16.9641 c -1.5518,0 -2.8079,1.2541 -2.8079,2.804 v 124.084"
         id="path4447" />
      <path
         inkscape:connector-curvature="0"
         style="fill:#ffffff;fill-opacity:1;fill-rule:nonzero;stroke:#646464;stroke-width:0.50479937;stroke-opacity:1"
         d="m 1132.4708,1358.9853 h 22.5799 v -124.084 c 0,-1.5499 -1.2581,-2.804 -2.808,-2.804 h -16.964 c -1.5499,0 -2.8079,1.2541 -2.8079,2.804 v 124.084"
         id="path4449" />
      <path
         inkscape:connector-curvature="0"
         style="fill:#ffffff;fill-opacity:1;fill-rule:nonzero;stroke:#646464;stroke-width:0.50479937;stroke-opacity:1"
         d="m 1157.9139,1358.9853 h 22.5819 v -124.084 c 0,-1.5499 -1.262,-2.804 -2.81,-2.804 h -16.964 c -1.5499,0 -2.8079,1.2541 -2.8079,2.804 v 124.084"
         id="path4451" />
      <path
         inkscape:connector-curvature="0"
         style="fill:#ffffff;fill-opacity:1;fill-rule:nonzero;stroke:#646464;stroke-width:0.50479937;stroke-opacity:1"
         d="m 1183.0552,1358.9853 h 22.578 v -124.084 c 0,-1.5499 -1.2561,-2.804 -2.804,-2.804 h -16.9699 c -1.5499,0 -2.8041,1.2541 -2.8041,2.804 v 124.084"
         id="path4455" />
      <path
         inkscape:connector-curvature="0"
         style="fill:#ffffff;fill-opacity:1;fill-rule:nonzero;stroke:#646464;stroke-width:0.50479937;stroke-opacity:1"
         d="m 1208.4924,1358.9853 h 22.5839 v -124.084 c 0,-1.5499 -1.2601,-2.804 -2.81,-2.804 h -16.964 c -1.5479,0 -2.8099,1.2541 -2.8099,2.804 v 124.084"
         id="path4457" />
      <path
         inkscape:connector-curvature="0"
         style="fill:#ffffff;fill-opacity:1;fill-rule:nonzero;stroke:#646464;stroke-width:0.50479937;stroke-opacity:1"
         d="m 1233.5115,1358.9853 h 22.578 v -124.084 c 0,-1.5499 -1.2542,-2.804 -2.804,-2.804 h -16.9641 c -1.5538,0 -2.8099,1.2541 -2.8099,2.804 v 124.084"
         id="path4469" />
      <path
         inkscape:connector-curvature="0"
         style="fill:#ffffff;fill-opacity:1;fill-rule:nonzero;stroke:#646464;stroke-width:0.50479937;stroke-opacity:1"
         d="m 1258.9546,1358.9853 h 22.5799 v -124.084 c 0,-1.5499 -1.2561,-2.804 -2.806,-2.804 h -16.968 c -1.5498,0 -2.8059,1.2541 -2.8059,2.804 v 124.084"
         id="path4471" />
      <path
         inkscape:connector-curvature="0"
         style="fill:#ffffff;fill-opacity:1;fill-rule:nonzero;stroke:#646464;stroke-width:0.50479937;stroke-opacity:1"
         d="m 1284.3937,1358.9853 h 22.5839 v -124.084 c 0,-1.5499 -1.26,-2.804 -2.8099,-2.804 h -16.9641 c -1.5479,0 -2.8099,1.2541 -2.8099,2.804 v 124.084"
         id="path4473" />
      <path
         inkscape:connector-curvature="0"
         style="fill:#ffffff;fill-opacity:1;fill-rule:nonzero;stroke:#646464;stroke-width:0.50479937;stroke-opacity:1"
         d="m 1309.8387,1358.9853 h 22.578 v -124.084 c 0,-1.5499 -1.2561,-2.804 -2.804,-2.804 h -16.9699 c -1.5499,0 -2.8041,1.2541 -2.8041,2.804 v 124.084"
         id="path4475" />
      <path
         inkscape:connector-curvature="0"
         style="fill:#ffffff;fill-opacity:1;fill-rule:nonzero;stroke:#646464;stroke-width:0.50479937;stroke-opacity:1"
         d="m 1335.2819,1358.9853 h 22.5779 v -124.084 c 0,-1.5499 -1.2541,-2.804 -2.8099,-2.804 h -16.964 c -1.5479,0 -2.804,1.2541 -2.804,2.804 v 124.084"
         id="path4477" />
      <path
         inkscape:connector-curvature="0"
         style="fill:#ffffff;fill-opacity:1;fill-rule:nonzero;stroke:#646464;stroke-width:0.50479937;stroke-opacity:1"
         d="m 1361.1765,1358.9853 h 22.5779 v -124.084 c 0,-1.5499 -1.2541,-2.804 -2.804,-2.804 h -16.9699 c -1.5479,0 -2.804,1.2541 -2.804,2.804 v 124.084"
         id="path4481" />
      <path
         inkscape:connector-curvature="0"
         style="fill:#ffffff;fill-opacity:1;fill-rule:nonzero;stroke:#646464;stroke-width:0.50479937;stroke-opacity:1"
         d="m 1386.6196,1358.9853 h 22.5799 v -124.084 c 0,-1.5499 -1.262,-2.804 -2.8099,-2.804 h -16.964 c -1.5499,0 -2.806,1.2541 -2.806,2.804 v 124.084"
         id="path4483" />
      <path
         inkscape:connector-curvature="0"
         style="fill:#000000;fill-opacity:1;fill-rule:nonzero;stroke:#646464;stroke-width:0.50479937;stroke-opacity:1"
         d="m 1089.3519,1295.5383 h -18.7624 v 63.447 h 18.7624 v -63.447"
         id="path4459" />
      <path
         inkscape:connector-curvature="0"
         style="fill:#000000;fill-opacity:1;fill-rule:nonzero;stroke:#646464;stroke-width:0.50479937;stroke-opacity:1"
         d="m 1114.9803,1295.5383 h -18.7644 v 63.447 h 18.7644 v -63.447"
         id="path4461" />
      <path
         inkscape:connector-curvature="0"
         style="fill:#000000;fill-opacity:1;fill-rule:nonzero;stroke:#646464;stroke-width:0.50479937;stroke-opacity:1"
         d="m 1140.4214,1295.5383 h -18.7624 v 63.447 h 18.7624 v -63.447"
         id="path4463" />
      <path
         inkscape:connector-curvature="0"
         style="fill:#000000;fill-opacity:1;fill-rule:nonzero;stroke:#646464;stroke-width:0.50479937;stroke-opacity:1"
         d="m 1191.3095,1295.5383 h -18.7683 v 63.447 h 18.7683 v -63.447"
         id="path4465" />
      <path
         inkscape:connector-curvature="0"
         style="fill:#000000;fill-opacity:1;fill-rule:nonzero;stroke:#646464;stroke-width:0.50479937;stroke-opacity:1"
         d="m 1216.0466,1295.5383 h -18.7623 v 63.447 h 18.7623 v -63.447"
         id="path4467" />
      <path
         inkscape:connector-curvature="0"
         style="fill:#000000;fill-opacity:1;fill-rule:nonzero;stroke:#646464;stroke-width:0.50479937;stroke-opacity:1"
         d="m 1266.7159,1295.5383 h -18.7604 v 63.447 h 18.7604 v -63.447"
         id="path4485" />
      <path
         inkscape:connector-curvature="0"
         style="fill:#000000;fill-opacity:1;fill-rule:nonzero;stroke:#646464;stroke-width:0.50479937;stroke-opacity:1"
         d="m 1292.3483,1295.5383 h -18.7624 v 63.447 h 18.7624 v -63.447"
         id="path4487" />
      <path
         inkscape:connector-curvature="0"
         style="fill:#000000;fill-opacity:1;fill-rule:nonzero;stroke:#646464;stroke-width:0.50479937;stroke-opacity:1"
         d="m 1317.7913,1295.5383 h -18.7663 v 63.447 h 18.7663 v -63.447"
         id="path4489" />
      <path
         inkscape:connector-curvature="0"
         style="fill:#000000;fill-opacity:1;fill-rule:nonzero;stroke:#646464;stroke-width:0.50479937;stroke-opacity:1"
         d="m 1368.6736,1295.5383 h -18.7664 v 63.447 h 18.7664 v -63.447"
         id="path4491" />
      <path
         inkscape:connector-curvature="0"
         style="fill:#000000;fill-opacity:1;fill-rule:nonzero;stroke:#646464;stroke-width:0.50479937;stroke-opacity:1"
         d="m 1394.1679,1295.5383 h -18.7604 v 63.447 h 18.7604 v -63.447"
         id="path4493" />
    </g>
  </g>
</svg>
